<mxfile host="app.diagrams.net" modified="2024-05-04T18:54:27.419Z" agent="Mozilla/5.0 (Windows NT 10.0; Win64; x64) AppleWebKit/537.36 (KHTML, like Gecko) Chrome/124.0.0.0 Safari/537.36" etag="k-scwW9V7Su6JRJvae22" version="24.3.1" type="device">
  <diagram id="YrfzH3xwVrYN7FTBeiER" name="Page-1">
    <mxGraphModel dx="882" dy="578" grid="1" gridSize="10" guides="1" tooltips="1" connect="1" arrows="1" fold="1" page="1" pageScale="1" pageWidth="850" pageHeight="1100" math="0" shadow="0">
      <root>
        <mxCell id="0" />
        <mxCell id="1" parent="0" />
        <mxCell id="KVCm7OJPBAmKKIZykRuA-1" value="Inventory cache" style="rounded=1;whiteSpace=wrap;html=1;" vertex="1" parent="1">
          <mxGeometry x="80" y="160" width="120" height="60" as="geometry" />
        </mxCell>
        <mxCell id="KVCm7OJPBAmKKIZykRuA-5" style="edgeStyle=orthogonalEdgeStyle;rounded=0;orthogonalLoop=1;jettySize=auto;html=1;exitX=0;exitY=0.5;exitDx=0;exitDy=0;" edge="1" parent="1" source="KVCm7OJPBAmKKIZykRuA-2" target="KVCm7OJPBAmKKIZykRuA-1">
          <mxGeometry relative="1" as="geometry" />
        </mxCell>
        <mxCell id="KVCm7OJPBAmKKIZykRuA-7" style="edgeStyle=orthogonalEdgeStyle;rounded=0;orthogonalLoop=1;jettySize=auto;html=1;exitX=1;exitY=0.5;exitDx=0;exitDy=0;entryX=0.5;entryY=0;entryDx=0;entryDy=0;" edge="1" parent="1" source="KVCm7OJPBAmKKIZykRuA-2" target="KVCm7OJPBAmKKIZykRuA-3">
          <mxGeometry relative="1" as="geometry" />
        </mxCell>
        <mxCell id="KVCm7OJPBAmKKIZykRuA-2" value="Reservation service" style="rounded=1;whiteSpace=wrap;html=1;" vertex="1" parent="1">
          <mxGeometry x="240" y="40" width="120" height="60" as="geometry" />
        </mxCell>
        <mxCell id="KVCm7OJPBAmKKIZykRuA-4" style="edgeStyle=orthogonalEdgeStyle;rounded=0;orthogonalLoop=1;jettySize=auto;html=1;exitX=0;exitY=0.5;exitDx=0;exitDy=0;entryX=1;entryY=0.5;entryDx=0;entryDy=0;" edge="1" parent="1" source="KVCm7OJPBAmKKIZykRuA-3" target="KVCm7OJPBAmKKIZykRuA-1">
          <mxGeometry relative="1" as="geometry" />
        </mxCell>
        <mxCell id="KVCm7OJPBAmKKIZykRuA-3" value="Inventory DB" style="rounded=1;whiteSpace=wrap;html=1;" vertex="1" parent="1">
          <mxGeometry x="400" y="160" width="120" height="60" as="geometry" />
        </mxCell>
        <mxCell id="KVCm7OJPBAmKKIZykRuA-8" value="Query inventory" style="text;html=1;align=center;verticalAlign=middle;whiteSpace=wrap;rounded=0;" vertex="1" parent="1">
          <mxGeometry x="160" y="120" width="80" height="30" as="geometry" />
        </mxCell>
        <mxCell id="KVCm7OJPBAmKKIZykRuA-9" value="Update inventory" style="text;html=1;align=center;verticalAlign=middle;whiteSpace=wrap;rounded=0;" vertex="1" parent="1">
          <mxGeometry x="480" y="120" width="80" height="30" as="geometry" />
        </mxCell>
        <mxCell id="KVCm7OJPBAmKKIZykRuA-10" value="Async update cache" style="text;html=1;align=center;verticalAlign=middle;whiteSpace=wrap;rounded=0;" vertex="1" parent="1">
          <mxGeometry x="240" y="200" width="120" height="30" as="geometry" />
        </mxCell>
      </root>
    </mxGraphModel>
  </diagram>
</mxfile>
